<svg class="img-fluid" id="outputsvg" xmlns="http://www.w3.org/2000/svg" width="179" height="160" viewBox="0 0 1790 1600"><g id="l3GM4ttuMQKxgcF0CgcGhS0" fill="rgb(167,81,21)" style="transform: none;"><g style="transform: none;"><path id="plHcVReoV" d="M416 1560 c-56 -50 -69 -124 -31 -185 12 -18 3 -38 -81 -180 -97 -167 -110 -206 -73 -225 34 -19 54 4 152 174 l92 159 50 13 c71 17 115 67 115 129 0 89 -55 145 -142 145 -38 0 -54 -6 -82 -30z m122 -72 c34 -34 -14 -102 -56 -79 -28 15 -35 40 -17 67 17 26 53 32 73 12z"></path><path id="pYZ38cN8F" d="M1182 1570 c-18 -11 -38 -31 -44 -45 l-11 -25 -202 0 c-207 0 -225 -3 -225 -41 0 -10 7 -25 16 -33 13 -14 47 -16 215 -16 164 0 199 -2 199 -14 0 -23 65 -73 103 -80 23 -4 49 -1 76 10 141 56 102 264 -50 264 -26 0 -57 -8 -77 -20z m113 -94 c30 -45 -20 -91 -64 -59 -23 16 -28 52 -9 71 20 20 56 14 73 -12z"></path><path id="pJ5KPswp8" d="M1337 1274 c-13 -14 -7 -59 13 -92 l20 -33 -20 11 c-28 15 -27 -10 2 -61 23 -41 44 -50 50 -22 2 10 26 -21 62 -81 57 -97 58 -99 46 -137 -29 -85 14 -171 94 -189 117 -26 206 83 158 194 -23 51 -62 76 -119 76 l-38 0 -101 168 c-91 150 -104 167 -130 170 -17 2 -33 0 -37 -4z m337 -443 c23 -26 13 -59 -21 -67 -32 -8 -57 6 -61 35 -7 48 49 69 82 32z"></path><path id="ph0aRhZR9" d="M98 932 c-16 -2 -44 -18 -63 -36 -33 -31 -35 -37 -35 -97 0 -94 29 -128 120 -139 l45 -5 100 -165 c99 -163 101 -165 135 -165 63 0 54 33 -58 217 l-99 163 15 35 c25 61 2 141 -51 174 -26 16 -71 24 -109 18z m73 -113 c18 -34 -3 -69 -41 -69 -22 0 -33 6 -41 24 -16 35 3 66 41 66 20 0 33 -7 41 -21z"></path><path id="pj7hWc2g5" d="M1483 622 c-10 -9 -58 -88 -108 -174 l-90 -156 -42 -7 c-174 -26 -159 -275 17 -275 56 0 101 27 123 73 21 44 21 76 1 126 l-16 40 96 167 c53 92 96 171 96 176 0 11 -38 48 -50 48 -5 0 -18 -8 -27 -18z m-193 -442 c24 -24 25 -43 4 -64 -20 -20 -48 -20 -68 0 -22 22 -20 50 6 68 29 20 34 20 58 -4z"></path><path id="p8F1BTR7V" d="M445 281 c-11 -5 -33 -23 -50 -41 -26 -27 -30 -39 -30 -90 0 -63 20 -96 77 -126 59 -31 141 -5 176 56 l17 30 205 2 205 3 3 28 c6 55 -3 57 -214 57 l-193 0 -39 41 c-33 36 -45 42 -88 45 -27 2 -58 0 -69 -5z m87 -98 c22 -20 23 -41 1 -65 -20 -22 -41 -23 -65 -1 -22 20 -23 41 -1 65 20 22 41 23 65 1z"></path></g></g><g id="l1jG6hiUysCONpBXxuD0Izd" fill="rgb(165,123,29)" style="transform: none;"><g style="transform: none;"><path id="pHHwp3vmr" d="M1337 1092 c3 -42 10 -83 16 -89 6 -9 6 -13 -2 -13 -14 0 -15 -47 -1 -55 11 -7 14 -78 4 -88 -3 -3 -26 7 -50 21 -43 26 -44 28 -44 77 0 56 -5 67 -38 84 -107 56 -581 53 -669 -4 -19 -13 -23 -24 -23 -70 0 -51 -2 -55 -32 -71 -62 -31 -198 -115 -198 -122 0 -4 37 -26 83 -50 45 -24 177 -95 294 -159 l212 -115 163 85 c90 46 188 98 218 114 30 16 92 49 138 73 91 47 92 53 21 86 l-42 18 6 88 c4 62 2 88 -6 92 -9 3 -9 5 1 5 8 1 12 18 12 51 0 53 -19 93 -51 110 -16 9 -17 4 -12 -68z m-259 -63 c151 -17 171 -39 54 -59 -84 -15 -460 -8 -514 9 -68 21 -46 37 70 51 102 11 282 11 390 -1z m-343 -279 c161 -23 343 -8 442 35 30 14 58 25 60 25 12 0 -23 -32 -48 -46 -82 -42 -121 -49 -289 -49 -147 0 -172 3 -232 23 -65 23 -118 55 -118 72 0 5 26 -5 58 -21 32 -16 89 -33 127 -39z"></path></g></g></svg>
